<svg width="146" height="25" viewBox="0 0 146 25" fill="none" xmlns="http://www.w3.org/2000/svg">
<path d="M128.929 24V0.727295H133.77V9.47729H133.917C134.129 9.0076 134.436 8.53033 134.838 8.04548C135.247 7.55305 135.777 7.14396 136.429 6.8182C137.088 6.48487 137.906 6.3182 138.883 6.3182C140.156 6.3182 141.33 6.65154 142.406 7.3182C143.482 7.9773 144.342 8.97351 144.986 10.3068C145.629 11.6326 145.951 13.2955 145.951 15.2955C145.951 17.2424 145.637 18.8864 145.008 20.2273C144.387 21.5606 143.539 22.572 142.463 23.2614C141.395 23.9432 140.198 24.2841 138.872 24.2841C137.933 24.2841 137.133 24.1288 136.474 23.8182C135.823 23.5076 135.289 23.1174 134.872 22.6478C134.455 22.1705 134.137 21.6894 133.917 21.2046H133.701V24H128.929ZM133.667 15.2728C133.667 16.3106 133.811 17.2159 134.099 17.9887C134.387 18.7614 134.804 19.3637 135.349 19.7955C135.895 20.2197 136.558 20.4318 137.338 20.4318C138.126 20.4318 138.792 20.2159 139.338 19.7841C139.883 19.3447 140.296 18.7387 140.576 17.9659C140.864 17.1856 141.008 16.2879 141.008 15.2728C141.008 14.2652 140.868 13.3788 140.588 12.6137C140.308 11.8485 139.895 11.25 139.349 10.8182C138.804 10.3864 138.133 10.1705 137.338 10.1705C136.55 10.1705 135.883 10.3788 135.338 10.7955C134.8 11.2121 134.387 11.8031 134.099 12.5682C133.811 13.3334 133.667 14.2349 133.667 15.2728Z" fill="#FF577F"/>
<path d="M120.125 16.5681V6.54541H124.966V24H120.318V20.8295H120.136C119.742 21.8522 119.087 22.6742 118.17 23.2954C117.261 23.9166 116.151 24.2272 114.841 24.2272C113.674 24.2272 112.648 23.9621 111.761 23.4318C110.875 22.9015 110.182 22.1477 109.682 21.1704C109.189 20.1931 108.939 19.0227 108.932 17.659V6.54541H113.773V16.7954C113.78 17.8257 114.057 18.6401 114.602 19.2386C115.148 19.8371 115.879 20.1363 116.795 20.1363C117.379 20.1363 117.924 20.0037 118.432 19.7386C118.939 19.4659 119.348 19.0643 119.659 18.534C119.977 18.0037 120.132 17.3484 120.125 16.5681Z" fill="#FF577F"/>
<path d="M85.1475 24V0.727295H90.0679V10.3296H100.057V0.727295H104.966V24H100.057V14.3864H90.0679V24H85.1475Z" fill="#FF577F"/>
<path d="M62.5225 13.9091V24H57.6816V0.727295H62.3862V9.62502H62.5907C62.9847 8.59472 63.621 7.7879 64.4998 7.20457C65.3786 6.61366 66.4809 6.3182 67.8066 6.3182C69.0188 6.3182 70.0756 6.58336 70.9771 7.11366C71.8862 7.63639 72.5907 8.39017 73.0907 9.37502C73.5983 10.3523 73.8483 11.5228 73.8407 12.8864V24H68.9998V13.75C69.0074 12.6743 68.7347 11.8371 68.1816 11.2387C67.6362 10.6402 66.871 10.3409 65.8862 10.3409C65.2271 10.3409 64.6438 10.4811 64.1362 10.7614C63.6362 11.0417 63.2422 11.4508 62.9544 11.9887C62.6741 12.519 62.5301 13.1591 62.5225 13.9091Z" fill="#FF577F"/>
<path d="M46.7867 24.3408C44.9988 24.3408 43.461 23.9621 42.1731 23.2045C40.8928 22.4393 39.9079 21.3787 39.2185 20.0227C38.5367 18.6666 38.1958 17.106 38.1958 15.3408C38.1958 13.553 38.5405 11.9848 39.2299 10.6363C39.9269 9.28024 40.9155 8.22342 42.1958 7.46584C43.4761 6.70069 44.9988 6.31812 46.764 6.31812C48.2867 6.31812 49.62 6.59463 50.764 7.14766C51.9079 7.70069 52.8132 8.47721 53.4799 9.47721C54.1466 10.4772 54.514 11.6514 54.5822 12.9999H50.014C49.8852 12.1287 49.5443 11.428 48.9913 10.8977C48.4458 10.3598 47.7299 10.0908 46.8435 10.0908C46.0935 10.0908 45.4382 10.2954 44.8776 10.7045C44.3246 11.106 43.8928 11.6931 43.5822 12.4658C43.2716 13.2386 43.1163 14.1742 43.1163 15.2727C43.1163 16.3863 43.2678 17.3333 43.5708 18.1136C43.8814 18.8939 44.317 19.4886 44.8776 19.8977C45.4382 20.3068 46.0935 20.5113 46.8435 20.5113C47.3966 20.5113 47.8928 20.3977 48.3322 20.1704C48.7791 19.9431 49.1466 19.6136 49.4344 19.1818C49.7299 18.7424 49.9231 18.2158 50.014 17.6022H54.5822C54.5064 18.9355 54.1428 20.1098 53.4913 21.1249C52.8473 22.1325 51.9572 22.9204 50.8208 23.4886C49.6844 24.0568 48.3397 24.3408 46.7867 24.3408Z" fill="#FF577F"/>
<path d="M27.7299 24.3408C25.9344 24.3408 24.389 23.9772 23.0935 23.2499C21.8057 22.5151 20.8132 21.4772 20.1163 20.1363C19.4193 18.7878 19.0708 17.1931 19.0708 15.3522C19.0708 13.5568 19.4193 11.981 20.1163 10.6249C20.8132 9.26887 21.7943 8.21205 23.0594 7.45448C24.3322 6.6969 25.8246 6.31812 27.5367 6.31812C28.6882 6.31812 29.7602 6.50372 30.7526 6.87493C31.7526 7.23857 32.6238 7.78781 33.3663 8.52266C34.1163 9.25751 34.6996 10.1818 35.1163 11.2954C35.5329 12.4014 35.7413 13.6969 35.7413 15.1818V16.5113H21.0026V13.5113H31.1844C31.1844 12.8143 31.0329 12.1969 30.7299 11.659C30.4269 11.1211 30.0064 10.7007 29.4685 10.3977C28.9382 10.0871 28.3208 9.93175 27.6163 9.93175C26.8814 9.93175 26.2299 10.1022 25.6617 10.4431C25.1011 10.7764 24.6617 11.2272 24.3435 11.7954C24.0253 12.356 23.8625 12.981 23.8549 13.6704V16.5227C23.8549 17.3863 24.014 18.1325 24.3322 18.7613C24.6579 19.3901 25.1163 19.8749 25.7072 20.2158C26.2981 20.5568 26.9988 20.7272 27.8094 20.7272C28.3473 20.7272 28.8397 20.6514 29.2867 20.4999C29.7337 20.3484 30.1163 20.1211 30.4344 19.8181C30.7526 19.5151 30.995 19.1439 31.1617 18.7045L35.639 18.9999C35.4117 20.0757 34.9458 21.0151 34.2413 21.8181C33.5443 22.6136 32.6428 23.2348 31.5367 23.6818C30.4382 24.1211 29.1693 24.3408 27.7299 24.3408Z" fill="#FF577F"/>
<path d="M0.13623 4.78411V0.727295H19.2499V4.78411H12.1249V24H7.26123V4.78411H0.13623Z" fill="#FF577F"/>
</svg>
